<svg xmlns="http://www.w3.org/2000/svg" viewBox="0 0 100 100"><defs><style>.cls-1{fill:#b5b5b5;}.cls-2{fill:#fff;}</style></defs><g id="Layer_2" data-name="Layer 2"><g id="Layer_1-2" data-name="Layer 1"><g id="LightFilled"><rect class="cls-1" x="10" y="10" width="80" height="80" rx="15"/><path d="M75,20a5,5,0,0,1,5,5V75a5,5,0,0,1-5,5H25a5,5,0,0,1-5-5V25a5,5,0,0,1,5-5H75M75,0H25A25,25,0,0,0,0,25V75a25,25,0,0,0,25,25H75a25,25,0,0,0,25-25V25A25,25,0,0,0,75,0Z"/><path class="cls-2" d="M75.35,39.78,46.63,68.5a3.15,3.15,0,0,1-4.47,0L24.5,50.84a3.15,3.15,0,0,1,0-4.47L28.88,42a3.17,3.17,0,0,1,4.47,0l8.81,8.81a3.17,3.17,0,0,0,4.47,0L66.5,30.93a3.15,3.15,0,0,1,4.47,0l4.38,4.38A3.15,3.15,0,0,1,75.35,39.78Z"/></g></g></g></svg>