<svg xmlns="http://www.w3.org/2000/svg" viewBox="0 0 512 512"><defs><style>.cls-1{fill:#fff;}</style></defs><g id="Layer_2" data-name="Layer 2"><g id="Layer_1-2" data-name="Layer 1"><path d="M341,507a10,10,0,0,1-10-10V356H181V497a10,10,0,0,1-10,10h-5a10,10,0,0,1-10-10V356H15A10,10,0,0,1,5,346v-5a10,10,0,0,1,10-10H156V181H15A10,10,0,0,1,5,171v-5a10,10,0,0,1,10-10H156V15A10,10,0,0,1,166,5h5a10,10,0,0,1,10,10V156H331V15A10,10,0,0,1,341,5h5a10,10,0,0,1,10,10V156H497a10,10,0,0,1,10,10v5a10,10,0,0,1-10,10H356V331H497a10,10,0,0,1,10,10v5a10,10,0,0,1-10,10H356V497a10,10,0,0,1-10,10ZM331,331V181H181V331Z"/><path class="cls-1" d="M346,10a5,5,0,0,1,5,5V161H497a5,5,0,0,1,5,5v5a5,5,0,0,1-5,5H351V336H497a5,5,0,0,1,5,5v5a5,5,0,0,1-5,5H351V497a5,5,0,0,1-5,5h-5a5,5,0,0,1-5-5V351H176V497a5,5,0,0,1-5,5h-5a5,5,0,0,1-5-5V351H15a5,5,0,0,1-5-5v-5a5,5,0,0,1,5-5H161V176H15a5,5,0,0,1-5-5v-5a5,5,0,0,1,5-5H161V15a5,5,0,0,1,5-5h5a5,5,0,0,1,5,5V161H336V15a5,5,0,0,1,5-5h5M176,336H336V176H176V336M346,0h-5a15,15,0,0,0-15,15V151H186V15A15,15,0,0,0,171,0h-5a15,15,0,0,0-15,15V151H15A15,15,0,0,0,0,166v5a15,15,0,0,0,15,15H151V326H15A15,15,0,0,0,0,341v5a15,15,0,0,0,15,15H151V497a15,15,0,0,0,15,15h5a15,15,0,0,0,15-15V361H326V497a15,15,0,0,0,15,15h5a15,15,0,0,0,15-15V361H497a15,15,0,0,0,15-15v-5a15,15,0,0,0-15-15H361V186H497a15,15,0,0,0,15-15v-5a15,15,0,0,0-15-15H361V15A15,15,0,0,0,346,0ZM186,186H326V326H186V186Z"/></g></g></svg>