<svg xmlns="http://www.w3.org/2000/svg" viewBox="0 0 416.99 416.99"><defs><style>.cls-1{fill:#8080ff;}.cls-2{fill:#fff;}</style></defs><g id="Layer_2" data-name="Layer 2"><g id="Layer_1-2" data-name="Layer 1"><path class="cls-1" d="M60,397a40,40,0,0,1-40-40V60A40,40,0,0,1,60,20H357a40,40,0,0,1,40,40V357a40,40,0,0,1-40,40ZM138.47,138.5l0,140h140v-140h-140Z"/><path class="cls-2" d="M357,40a20.06,20.06,0,0,1,20,20V357a20.06,20.06,0,0,1-20,20H60a20.06,20.06,0,0,1-20-20V60A20.06,20.06,0,0,1,60,40H357M138.5,298.5h140a20,20,0,0,0,20-20v-140a20,20,0,0,0-20-20h-140a20,20,0,0,0-20,20v140a20,20,0,0,0,20,20M357,0H60A60.07,60.07,0,0,0,0,60V357a60.07,60.07,0,0,0,60,60H357a60.06,60.06,0,0,0,60-60V60A60.07,60.07,0,0,0,357,0ZM158.5,158.5h100v100h-100v-100Z"/></g></g></svg>