<svg xmlns="http://www.w3.org/2000/svg" viewBox="0 0 416.99 416.99"><defs><style>.cls-1{fill:#ff8080;}.cls-2{fill:#fff;}</style></defs><g id="Layer_2" data-name="Layer 2"><g id="Layer_1-2" data-name="Layer 1"><path class="cls-1" d="M314.57,397a39.77,39.77,0,0,1-28.29-11.71L208.5,307.49l-77.79,77.79a40,40,0,0,1-56.57,0L31.72,342.85a40,40,0,0,1,0-56.57L109.5,208.5,31.72,130.71a40,40,0,0,1,0-56.57L74.14,31.72a40,40,0,0,1,56.57,0L208.5,109.5l77.78-77.78a40,40,0,0,1,56.57,0l42.43,42.42a40,40,0,0,1,0,56.57L307.49,208.5l77.79,77.78a40.06,40.06,0,0,1,0,56.57l-42.43,42.43A39.76,39.76,0,0,1,314.57,397Z"/><path class="cls-2" d="M314.57,40a19.94,19.94,0,0,1,14.14,5.86l42.42,42.42a20,20,0,0,1,0,28.29l-77.78,77.78a20,20,0,0,0,0,28.29l77.78,77.78a20,20,0,0,1,0,28.29l-42.42,42.42a20,20,0,0,1-28.29,0l-77.78-77.78a20,20,0,0,0-28.29,0l-77.78,77.78a20,20,0,0,1-28.29,0L45.86,328.71a20,20,0,0,1,0-28.29l77.78-77.78a20,20,0,0,0,0-28.29L45.86,116.57a20,20,0,0,1,0-28.29L88.28,45.86a20,20,0,0,1,28.29,0l77.78,77.78a20,20,0,0,0,28.29,0l77.78-77.78A19.94,19.94,0,0,1,314.57,40m0-40a59.61,59.61,0,0,0-42.43,17.57L208.5,81.22,144.85,17.57a60,60,0,0,0-84.85,0L17.57,60a60,60,0,0,0,0,84.85L81.22,208.5,17.57,272.14a60,60,0,0,0,0,84.85L60,399.42a60,60,0,0,0,84.85,0l63.65-63.65,63.64,63.65a60,60,0,0,0,84.85,0L399.42,357a60,60,0,0,0,0-84.85L335.77,208.5l63.65-63.65a60,60,0,0,0,0-84.85L357,17.57A59.61,59.61,0,0,0,314.57,0Z"/></g></g></svg>