<svg xmlns="http://www.w3.org/2000/svg" viewBox="0 0 100 100"><defs><style>.cls-1{fill:#b5b5b5;}.cls-2{fill:#fff;}</style></defs><g id="Layer_2" data-name="Layer 2"><g id="UI"><g id="Checkboxes"><g id="White"><g id="LightBlank"><rect class="cls-1" x="10" y="10" width="80" height="80" rx="15"/><path class="cls-2" d="M75,20a5,5,0,0,1,5,5V75a5,5,0,0,1-5,5H25a5,5,0,0,1-5-5V25a5,5,0,0,1,5-5H75M75,0H25A25,25,0,0,0,0,25V75a25,25,0,0,0,25,25H75a25,25,0,0,0,25-25V25A25,25,0,0,0,75,0Z"/></g></g></g></g></g></svg>