<svg xmlns="http://www.w3.org/2000/svg" viewBox="0 0 100 100"><g id="Layer_2" data-name="Layer 2"><g id="Layer_1-2" data-name="Layer 1"><g id="Gear2"><path d="M50,35.57A14.43,14.43,0,1,1,35.57,50,14.44,14.44,0,0,1,50,35.57m0-25A39.43,39.43,0,1,0,89.43,50,39.43,39.43,0,0,0,50,10.57Z"/><path d="M38.17,12.62H61.83L59.27,2.39A3.16,3.16,0,0,0,56.21,0H43.79a3.16,3.16,0,0,0-3.06,2.39Z"/><path d="M56.21,0H43.79a3.16,3.16,0,0,0-3.06,2.39L38.17,12.62H61.83L59.27,2.39A3.16,3.16,0,0,0,56.21,0Z"/><path d="M87.38,61.83V38.17l10.23,2.56A3.16,3.16,0,0,1,100,43.79V56.21a3.16,3.16,0,0,1-2.39,3.06Z"/><path d="M87.38,38.17V61.83l10.23-2.56A3.16,3.16,0,0,0,100,56.21V43.79a3.16,3.16,0,0,0-2.39-3.06L87.38,38.17Z"/><path d="M84.8,31.93,68.07,15.2l9-5.42a3.15,3.15,0,0,1,3.85.47L89.75,19a3.15,3.15,0,0,1,.47,3.85Z"/><path d="M78.73,9.33a3.15,3.15,0,0,0-1.62.45l-9,5.42L84.8,31.93l5.42-9A3.15,3.15,0,0,0,89.75,19L81,10.25a3.13,3.13,0,0,0-2.23-.92Z"/><path d="M12.62,61.83V38.17L2.39,40.73A3.16,3.16,0,0,0,0,43.79V56.21a3.16,3.16,0,0,0,2.39,3.06Z"/><path d="M12.62,38.17,2.39,40.73A3.16,3.16,0,0,0,0,43.79V56.21a3.16,3.16,0,0,0,2.39,3.06l10.23,2.56V38.17Z"/><path d="M68.07,84.8,84.8,68.07l5.42,9A3.15,3.15,0,0,1,89.75,81L81,89.75a3.15,3.15,0,0,1-3.85.47Z"/><path d="M84.8,68.07,68.07,84.8l9,5.42A3.15,3.15,0,0,0,81,89.75L89.75,81a3.15,3.15,0,0,0,.47-3.85l-5.42-9Z"/><path d="M38.17,87.38H61.83L59.27,97.61A3.16,3.16,0,0,1,56.21,100H43.79a3.16,3.16,0,0,1-3.06-2.39Z"/><path d="M61.83,87.38H38.17l2.56,10.23A3.16,3.16,0,0,0,43.79,100H56.21a3.16,3.16,0,0,0,3.06-2.39l2.56-10.23Z"/><path d="M15.2,68.07,31.93,84.8l-9,5.42A3.15,3.15,0,0,1,19,89.75L10.25,81a3.15,3.15,0,0,1-.47-3.85Z"/><path d="M15.2,68.07l-5.42,9A3.15,3.15,0,0,0,10.25,81L19,89.75a3.15,3.15,0,0,0,3.85.47l9-5.42L15.2,68.07Z"/><path d="M31.93,15.2,15.2,31.93l-5.42-9A3.15,3.15,0,0,1,10.25,19L19,10.25a3.15,3.15,0,0,1,3.85-.47Z"/><path d="M21.27,9.33a3.13,3.13,0,0,0-2.23.92L10.25,19a3.15,3.15,0,0,0-.47,3.85l5.42,9L31.93,15.2l-9-5.42a3.15,3.15,0,0,0-1.62-.45Z"/></g></g></g></svg>