<svg xmlns="http://www.w3.org/2000/svg" viewBox="0 0 280 120"><defs><style>.cls-1{fill:#a0a0a0;}.cls-2{fill:#fff;}</style></defs><g id="Layer_2" data-name="Layer 2"><g id="UI"><g id="Buttons"><g id="White"><g id="Button"><rect class="cls-1" x="10" y="10" width="260" height="100" rx="30"/><path class="cls-2" d="M240,20a20,20,0,0,1,20,20V80a20,20,0,0,1-20,20H40A20,20,0,0,1,20,80V40A20,20,0,0,1,40,20H240m0-20H40A40,40,0,0,0,0,40V80a40,40,0,0,0,40,40H240a40,40,0,0,0,40-40V40A40,40,0,0,0,240,0Z"/></g></g></g></g></g></svg>